<?xml version="1.0" encoding="UTF-8" standalone="no"?>
<!DOCTYPE svg PUBLIC "-//W3C//DTD SVG 1.1//EN" "http://www.w3.org/Graphics/SVG/1.1/DTD/svg11.dtd">
<svg width="100%" height="100%" viewBox="0 0 2060 2060" version="1.1" xmlns="http://www.w3.org/2000/svg" xmlns:xlink="http://www.w3.org/1999/xlink" xml:space="preserve" xmlns:serif="http://www.serif.com/" style="fill-rule:evenodd;clip-rule:evenodd;stroke-miterlimit:10;">
    <g transform="matrix(1,0,0,1,-2970.19,-1189.07)">
        <g transform="matrix(4.16667,0,0,4.16667,0,0)">
            <g opacity="0.87">
                <g transform="matrix(1,0,0,1,1007.62,537.688)">
                    <path d="M0,83.16C0,87.5 3.52,91.02 7.86,91.02C9.08,91.02 10.24,90.74 11.28,90.24C12.78,112.29 23.33,144.78 23.33,144.78L-43.15,144.78L-41.77,49.02L40.17,8.3L79.85,-51.73L90.59,-47.71L51.5,32.01L61.3,19.13L103.73,-61.62L117.64,-60.07L83.71,20.93C83.71,20.93 20.96,54.33 12.6,75.04C12.41,75.51 12.24,76.01 12.09,76.54C10.87,75.75 9.42,75.3 7.86,75.3C3.52,75.3 0,78.82 0,83.16" style="fill:rgb(29,132,182);fill-rule:nonzero;"/>
                </g>
            </g>
        </g>
        <g transform="matrix(4.16667,0,0,4.16667,0,0)">
            <g transform="matrix(0.550915,0.834561,0.834561,-0.550915,971.223,556.417)">
                <path d="M18.002,-10.312C18.002,-10.312 9.047,2.19 9.272,2.568C16.718,15.065 18.002,31.695 18.002,31.695L21.666,31.802L18.002,-10.312Z" style="fill:rgb(29,132,182);fill-rule:nonzero;"/>
            </g>
        </g>
        <g transform="matrix(4.16667,0,0,4.16667,0,0)">
            <g opacity="0.87">
                <g transform="matrix(1,0,0,1,910.877,537.688)">
                    <path d="M0,83.16C0,87.5 -3.52,91.02 -7.86,91.02C-9.08,91.02 -10.24,90.74 -11.28,90.24C-12.78,112.29 -23.33,144.78 -23.33,144.78L43.15,144.78L41.77,49.02L-40.17,8.3L-79.85,-51.73L-90.59,-47.71L-51.5,32.01L-61.3,19.13L-103.73,-61.62L-117.64,-60.07L-83.71,20.93C-83.71,20.93 -20.96,54.33 -12.6,75.04C-12.41,75.51 -12.24,76.01 -12.09,76.54C-10.87,75.75 -9.42,75.3 -7.86,75.3C-3.52,75.3 0,78.82 0,83.16" style="fill:rgb(29,132,182);fill-rule:nonzero;"/>
                </g>
            </g>
        </g>
        <g transform="matrix(4.16667,0,0,4.16667,0,0)">
            <g transform="matrix(0.550915,-0.834561,-0.834561,-0.550915,947.275,556.417)">
                <path d="M-18.002,-10.312C-18.002,-10.312 -9.047,2.19 -9.272,2.568C-16.718,15.065 -18.002,31.695 -18.002,31.695L-21.666,31.802L-18.002,-10.312Z" style="fill:rgb(29,132,182);fill-rule:nonzero;"/>
            </g>
        </g>
        <g transform="matrix(4.16667,0,0,4.16667,0,0)">
            <g opacity="0.87">
                <g>
                    <clipPath id="_clip1">
                        <rect x="830.653" y="298.96" width="257.281" height="257.282" clip-rule="nonzero"/>
                    </clipPath>
                    <g clip-path="url(#_clip1)">
                        <g transform="matrix(0,-1,-1,0,881.593,349.386)">
                            <circle cx="-12.776" cy="0" r="12.776" style="fill:none;stroke:rgb(32,46,71);stroke-width:3px;"/>
                        </g>
                        <g transform="matrix(1,0,0,1,892.984,432.395)">
                            <path d="M0,0L193.499,0" style="fill:none;fill-rule:nonzero;stroke:rgb(32,46,71);stroke-width:3px;"/>
                        </g>
                        <g transform="matrix(1,0,0,1,831.819,432.395)">
                            <path d="M0,0L45.807,0" style="fill:none;fill-rule:nonzero;stroke:rgb(32,46,71);stroke-width:3px;"/>
                        </g>
                        <g transform="matrix(0,1,1,0,1086.16,427.625)">
                            <path d="M-127.173,-127.173L127.173,-127.173" style="fill:none;fill-rule:nonzero;stroke:rgb(32,46,71);stroke-width:3px;"/>
                        </g>
                        <g transform="matrix(-0.849236,0.528013,0.528013,0.849236,905.202,367.395)">
                            <path d="M-86.658,-24.743C-65.543,-32.132 -33.535,-37.633 7.065,-24.744" style="fill:none;fill-rule:nonzero;stroke:rgb(32,46,71);stroke-width:3px;"/>
                        </g>
                        <g transform="matrix(0,1,1,0,907.94,399.25)">
                            <path d="M-24.247,-24.247L24.247,-24.247" style="fill:none;fill-rule:nonzero;stroke:rgb(32,46,71);stroke-width:3px;"/>
                        </g>
                        <g transform="matrix(1,0,0,1,892.083,375.172)">
                            <path d="M0,-20.887C10.354,-26.983 39.575,-40.187 83.733,-28.235C139.681,-13.091 169.968,14.673 189.319,19.3" style="fill:none;fill-rule:nonzero;stroke:rgb(32,46,71);stroke-width:3px;"/>
                        </g>
                        <g transform="matrix(0.772018,-0.635601,-0.635601,-0.772018,929.9,448.221)">
                            <path d="M-15.389,42.905C2.084,46.984 72.059,62.556 119.615,42.904" style="fill:none;fill-rule:nonzero;stroke:rgb(32,46,71);stroke-width:3px;"/>
                        </g>
                        <g transform="matrix(0.69667,0.717392,0.717392,-0.69667,945.996,416.021)">
                            <path d="M-23.45,-55.461C-23.45,-55.461 57.396,-99.151 131.167,-55.461" style="fill:none;fill-rule:nonzero;stroke:rgb(32,46,71);stroke-width:3px;"/>
                        </g>
                        <g transform="matrix(0.96613,0.258055,0.258055,-0.96613,898.323,419.617)">
                            <path d="M-2.264,-17.247C-2.264,-17.247 84.287,-25.043 131.406,-17.247" style="fill:none;fill-rule:nonzero;stroke:rgb(32,46,71);stroke-width:3px;"/>
                        </g>
                        <g transform="matrix(0.982507,-0.186226,-0.186226,-0.982507,897.187,440.317)">
                            <path d="M-1.146,12.199C-1.146,12.199 65.1,20.622 129.867,12.199" style="fill:none;fill-rule:nonzero;stroke:rgb(32,46,71);stroke-width:3px;"/>
                        </g>
                        <g transform="matrix(-0.700199,0.713948,0.713948,0.700199,860.795,483.171)">
                            <path d="M-46.683,-19.603C-46.683,-19.603 -19.768,-21.48 8.232,-19.603" style="fill:none;fill-rule:nonzero;stroke:rgb(32,46,71);stroke-width:3px;"/>
                        </g>
                        <g transform="matrix(0.530681,0.847572,0.847572,-0.530681,950.732,437.414)">
                            <path d="M-33.065,-55.912C-33.065,-55.912 51.816,-114.349 103.355,-55.912" style="fill:none;fill-rule:nonzero;stroke:rgb(32,46,71);stroke-width:3px;"/>
                        </g>
                        <g transform="matrix(-0.764499,0.644625,0.644625,0.764499,849.933,396.904)">
                            <path d="M-36.063,-13.175C-28.626,-14.082 -13.595,-15.465 4.813,-13.175" style="fill:none;fill-rule:nonzero;stroke:rgb(32,46,71);stroke-width:3px;"/>
                        </g>
                        <g transform="matrix(-0.885665,0.464325,0.464325,0.885665,960.424,565.302)">
                            <path d="M-59.265,-14.594C-42.092,-7.06 -21.046,-4.763 3.593,-14.593" style="fill:none;fill-rule:nonzero;stroke:rgb(32,46,71);stroke-width:3px;"/>
                        </g>
                        <g transform="matrix(-0.339901,0.940461,0.940461,0.339901,1033.87,506.648)">
                            <path d="M-23.081,-16.2C-13.033,-14.833 -1.001,-14.281 11.371,-16.2" style="fill:none;fill-rule:nonzero;stroke:rgb(32,46,71);stroke-width:3px;"/>
                        </g>
                        <g transform="matrix(-0.012186,0.999926,0.999926,0.012186,1055.02,438.235)">
                            <path d="M-24.713,-25.886C-8.375,-24.215 7.716,-24.055 25.59,-25.886" style="fill:none;fill-rule:nonzero;stroke:rgb(32,46,71);stroke-width:3px;"/>
                        </g>
                        <g transform="matrix(1,0,0,1,1008.97,396.256)">
                            <path d="M0,-51.944C0.025,-51.91 0.051,-51.877 0.076,-51.843C7.994,-41.285 14.63,-22.644 18.328,0" style="fill:none;fill-rule:nonzero;stroke:rgb(32,46,71);stroke-width:3px;"/>
                        </g>
                        <g transform="matrix(0.760108,0.649797,0.649797,-0.760108,975.825,292.648)">
                            <path d="M-5.732,-15.528C6.43,-14.93 25.767,-14.351 42.059,-15.528" style="fill:none;fill-rule:nonzero;stroke:rgb(32,46,71);stroke-width:3px;"/>
                        </g>
                        <g transform="matrix(0.808401,0.588632,0.588632,-0.808401,1050.89,390.85)">
                            <path d="M-4.515,-15.573C-4.515,-15.573 17.03,2.718 49.082,-15.573" style="fill:none;fill-rule:nonzero;stroke:rgb(32,46,71);stroke-width:3px;"/>
                        </g>
                        <g transform="matrix(1,0,0,1,1036.81,430.285)">
                            <path d="M0,39.656C0,39.656 28.611,32.333 47.121,3.729C48.155,2.13 48.551,1.451 49.48,0" style="fill:none;fill-rule:nonzero;stroke:rgb(32,46,71);stroke-width:3px;"/>
                        </g>
                        <g transform="matrix(0.967949,0.251147,0.251147,-0.967949,1013.56,332.079)">
                            <path d="M-0.821,-6.437C-0.821,-6.437 21.859,-1.158 50.435,-6.437" style="fill:none;fill-rule:nonzero;stroke:rgb(32,46,71);stroke-width:3px;"/>
                        </g>
                        <g transform="matrix(0,-1,-1,0,959.293,300.46)">
                            <circle cx="-127.141" cy="0" r="127.141" style="fill:none;stroke:rgb(32,46,71);stroke-width:3px;"/>
                        </g>
                        <g transform="matrix(0,-1,-1,0,885.53,422.876)">
                            <ellipse cx="-8.189" cy="0" rx="8.188" ry="8.189" style="fill:none;stroke:rgb(32,46,71);stroke-width:3px;"/>
                        </g>
                        <g transform="matrix(-0.770626,0.637288,0.637288,0.770626,983.482,546.425)">
                            <path d="M-75.154,-27.049C-75.154,-27.049 -15.438,-37.946 9.736,-27.05" style="fill:none;fill-rule:nonzero;stroke:rgb(32,46,71);stroke-width:3px;"/>
                        </g>
                        <g transform="matrix(0,-1,-1,0,1003.19,329.801)">
                            <circle cx="-8.099" cy="0" r="8.099" style="fill:none;stroke:rgb(32,46,71);stroke-width:3px;"/>
                        </g>
                        <g transform="matrix(1,0,0,1,1027.09,412.327)">
                            <path d="M0,-15.67C0.972,-16.06 2.033,-16.275 3.144,-16.275C7.806,-16.275 11.584,-12.496 11.584,-7.835C11.584,-3.173 7.806,0.605 3.144,0.605C-1.517,0.605 -5.296,-3.173 -5.296,-7.835C-5.296,-11.385 -3.104,-14.423 0,-15.67" style="fill:none;fill-rule:nonzero;stroke:rgb(32,46,71);stroke-width:3px;"/>
                        </g>
                        <g transform="matrix(0,-1,-1,0,1029.17,463.6)">
                            <ellipse cx="-7.993" cy="0" rx="7.993" ry="7.993" style="fill:none;stroke:rgb(32,46,71);stroke-width:3px;"/>
                        </g>
                        <g transform="matrix(0,-1,-1,0,1012.99,511.216)">
                            <circle cx="-8.665" cy="0" r="8.665" style="fill:none;stroke:rgb(32,46,71);stroke-width:3px;"/>
                        </g>
                    </g>
                </g>
            </g>
        </g>
        <g transform="matrix(4.16667,0,0,4.16667,0,0)">
            <g opacity="0.87">
                <g transform="matrix(1,0,0,1,771.357,769.555)">
                    <path d="M0,-51.682L0,-61.682L42.9,-61.682L42.9,-51.682L26.5,-51.682L26.5,10L16.4,10L16.4,-51.682L0,-51.682Z" style="fill:rgb(32,46,71);fill-rule:nonzero;"/>
                </g>
            </g>
        </g>
        <g transform="matrix(4.16667,0,0,4.16667,0,0)">
            <g opacity="0.87">
                <g transform="matrix(1,0,0,1,864.223,715.028)">
                    <path d="M0,57.371L-0.095,64.198L-36.895,64.526L-36.895,-7.155L-26.794,-7.155L-26.794,57.222L0,57.371Z" style="fill:rgb(32,46,71);fill-rule:nonzero;"/>
                </g>
            </g>
        </g>
        <g transform="matrix(4.16667,0,0,4.16667,0,0)">
            <g opacity="0.87">
                <g transform="matrix(1,0,0,1,954.05,779.13)">
                    <path d="M0,-72.487L9.517,-72.328L-12.848,-42.985L15.068,-27.281L-7.931,0L-17.448,-0.475L1.745,-24.585L-23.634,-42.033L0,-72.487Z" style="fill:rgb(32,46,71);fill-rule:nonzero;"/>
                </g>
            </g>
        </g>
        <g transform="matrix(4.16667,0,0,4.16667,0,0)">
            <g opacity="0.87">
                <g transform="matrix(1,0,0,1,745.27,779.418)">
                    <path d="M0,-72.574L-6.236,-72.574L-32.425,-0.156L-22.76,-0.156L-3.43,-53.938L15.745,0L25.566,0C25.566,0 0.156,-72.418 0,-72.574" style="fill:rgb(32,46,71);fill-rule:nonzero;"/>
                </g>
            </g>
        </g>
        <g transform="matrix(4.16667,0,0,4.16667,0,0)">
            <g opacity="0.87">
                <g transform="matrix(1,0,0,1,898.584,779.418)">
                    <path d="M0,-72.574L-6.235,-72.574L-32.425,-0.156L-22.76,-0.156L-3.429,-53.938L15.745,0L25.566,0C25.566,0 0.156,-72.418 0,-72.574" style="fill:rgb(32,46,71);fill-rule:nonzero;"/>
                </g>
            </g>
        </g>
        <g transform="matrix(4.16667,0,0,4.16667,0,0)">
            <g opacity="0.87">
                <g transform="matrix(1,0,0,1,1079.68,779.418)">
                    <path d="M0,-72.574L-6.236,-72.574L-32.425,-0.156L-22.76,-0.156L-3.43,-53.938L15.745,0L25.566,0C25.566,0 0.156,-72.418 0,-72.574" style="fill:rgb(32,46,71);fill-rule:nonzero;"/>
                </g>
            </g>
        </g>
        <g transform="matrix(4.16667,0,0,4.16667,0,0)">
            <g opacity="0.87">
                <g transform="matrix(1,0,0,1,1105.61,769.555)">
                    <path d="M0,-51.682L0,-61.682L42.9,-61.682L42.9,-51.682L26.5,-51.682L26.5,10L16.4,10L16.4,-51.682L0,-51.682Z" style="fill:rgb(32,46,71);fill-rule:nonzero;"/>
                </g>
            </g>
        </g>
        <g transform="matrix(4.16667,0,0,4.16667,0,0)">
            <g opacity="0.87">
                <g transform="matrix(-1,0,0,1,1005.01,705.09)">
                    <path d="M-8.794,74.449L0,74.449L0,0L-8.412,4.125L-8.794,74.449Z" style="fill:rgb(32,46,71);fill-rule:nonzero;"/>
                </g>
            </g>
        </g>
        <g transform="matrix(4.16667,0,0,4.16667,0,0)">
            <g opacity="0.87">
                <g transform="matrix(-0.8833,-0.468808,-0.468808,0.8833,1021.38,703.156)">
                    <path d="M-33.922,15.811L6.545,15.811L5.167,9.098L-36.376,8.153L-33.922,15.811Z" style="fill:rgb(32,46,71);fill-rule:nonzero;"/>
                </g>
            </g>
        </g>
        <g transform="matrix(4.16667,0,0,4.16667,0,0)">
            <g opacity="0.87">
                <g transform="matrix(-0.681104,0.732187,0.732187,0.681104,1026.93,772.543)">
                    <path d="M-47.02,-14.457L5.307,-14.457L5.307,-21.4L-45.293,-21.272L-47.02,-14.457Z" style="fill:rgb(32,46,71);fill-rule:nonzero;"/>
                </g>
            </g>
        </g>
        <g transform="matrix(4.16667,0,0,4.16667,0,0)">
            <g opacity="0.87">
                <g transform="matrix(-1,0,0,1,2357.64,378.32)">
                    <rect x="1189.03" y="329.406" width="7.931" height="71.218" style="fill:rgb(32,46,71);"/>
                </g>
            </g>
        </g>
        <g transform="matrix(4.16667,0,0,4.16667,0,0)">
            <g opacity="0.87">
                <g transform="matrix(-1,0,0,1,2434.73,378.32)">
                    <rect x="1227.57" y="329.406" width="7.931" height="71.218" style="fill:rgb(32,46,71);"/>
                </g>
            </g>
        </g>
        <g transform="matrix(4.16667,0,0,4.16667,0,0)">
            <g opacity="0.87">
                <g transform="matrix(-1,0,0,1,2398.88,380.638)">
                    <rect x="1194.58" y="360.287" width="38.068" height="7.138" style="fill:rgb(32,46,71);"/>
                </g>
            </g>
        </g>
    </g>
</svg>
